<svg width="59" height="17" viewBox="0 0 59 17" fill="none" xmlns="http://www.w3.org/2000/svg">
<g clip-path="url(#clip0_1646_23442)">
<path fill-rule="evenodd" clip-rule="evenodd" d="M15.3609 16.1905C15.3609 16.6376 14.9926 17 14.538 17H0.822908C0.368389 17 0 16.6376 0 16.1905V0.809524C0 0.362397 0.368389 0 0.822908 0H14.538C14.9926 0 15.3609 0.362397 15.3609 0.809524V16.1905Z" fill="#9F224E"/>
<path fill-rule="evenodd" clip-rule="evenodd" d="M4.94832 6.51925V6.7871V7.29467H5.90322H8.77338V9.70529H5.90322H4.94832V10.2691V10.537V11.0726V11.8762V12.6516H5.90322H13.1449V14.7944H5.57399H2.21614V2.20558H5.57399H13.1449V4.34835H5.90322H4.94832V5.18002V5.98356V6.51925ZM5.76798 5.15189H13.2241C13.6766 5.15189 13.9645 4.82003 13.9645 4.37648V2.2337C13.9645 1.79015 13.6766 1.40204 13.2241 1.40204H5.57399H2.29537C1.84265 1.40204 1.39648 1.79015 1.39648 2.2337V14.8225C1.39648 15.2661 1.84265 15.5979 2.29537 15.5979H5.57399H13.2241C13.6766 15.5979 13.9645 15.2661 13.9645 14.8225V12.6797C13.9645 12.2362 13.6766 11.8481 13.2241 11.8481H5.76798V11.0726V10.5088H8.85261C9.30506 10.5088 9.59304 10.177 9.59304 9.73341V7.32279C9.59304 6.87924 9.30506 6.49113 8.85261 6.49113H5.76798V5.98356V5.15189Z" fill="white"/>
</g>
<path d="M27.2307 13.8454V3.71327H31.2418C32.0568 3.71327 32.7345 3.87758 33.2748 4.20618C33.8151 4.52566 34.218 4.94555 34.4836 5.46585C34.7583 5.97702 34.8957 6.511 34.8957 7.06781C34.8957 7.62462 34.7583 8.16318 34.4836 8.68347C34.218 9.19464 33.8151 9.61453 33.2748 9.94314C32.7345 10.2717 32.0568 10.436 31.2418 10.436H29.0989V13.8454H27.2307ZM31.228 5.32893H29.0989V8.82039H31.228C31.631 8.82039 31.9652 8.73824 32.2308 8.57394C32.4964 8.4005 32.6933 8.18143 32.8215 7.91672C32.9588 7.64288 33.0275 7.36447 33.0275 7.08151C33.0275 6.78941 32.9588 6.51101 32.8215 6.24629C32.6933 5.98158 32.4964 5.76251 32.2308 5.58908C31.9652 5.41564 31.631 5.32893 31.228 5.32893Z" fill="#101010"/>
<path d="M36.3929 13.8454V3.43943H38.2198V7.62919H38.3022C38.3755 7.50139 38.49 7.34622 38.6456 7.16366C38.8013 6.97197 39.0165 6.80767 39.2913 6.67074C39.566 6.5247 39.914 6.45167 40.3352 6.45167C40.8939 6.45167 41.3517 6.57947 41.7089 6.83505C42.0752 7.08151 42.3454 7.41011 42.5193 7.82087C42.7025 8.23163 42.7941 8.67434 42.7941 9.149V13.8454H40.9671V9.39546C40.9671 9.00295 40.8572 8.66522 40.6374 8.38225C40.4177 8.09928 40.088 7.95779 39.6484 7.95779C39.3096 7.95779 39.0349 8.04451 38.8242 8.21794C38.6136 8.38225 38.4579 8.59676 38.3572 8.86147C38.2656 9.12618 38.2198 9.40458 38.2198 9.69668V13.8454H36.3929Z" fill="#101010"/>
<path d="M45.591 5.46585C45.2704 5.46585 45.0049 5.36088 44.7942 5.15093C44.5928 4.94099 44.492 4.68997 44.492 4.39787C44.492 4.10577 44.5928 3.85475 44.7942 3.64481C45.0049 3.43487 45.2704 3.3299 45.591 3.3299C45.9115 3.3299 46.177 3.43487 46.3877 3.64481C46.5983 3.85475 46.7036 4.10577 46.7036 4.39787C46.7036 4.68997 46.5983 4.94099 46.3877 5.15093C46.177 5.36088 45.9115 5.46585 45.591 5.46585ZM44.6843 13.8454V6.58859H46.5113V13.8454H44.6843Z" fill="#101010"/>
<path d="M48.4091 13.8454V6.58859H50.236V7.6018H50.3047C50.3963 7.4375 50.5245 7.26863 50.6894 7.0952C50.8542 6.91264 51.0648 6.76203 51.3212 6.64336C51.5868 6.51557 51.9119 6.45167 52.2965 6.45167C52.8368 6.45167 53.281 6.57947 53.629 6.83505C53.977 7.09063 54.2334 7.41924 54.3982 7.82087H54.4257C54.6088 7.47401 54.879 7.15909 55.2361 6.87613C55.6024 6.59316 56.0878 6.45167 56.6922 6.45167C57.205 6.45167 57.6309 6.57034 57.9697 6.80767C58.3177 7.03587 58.5741 7.34622 58.7389 7.73872C58.9129 8.13123 58.9999 8.55568 58.9999 9.01208V13.8454H57.173V9.39546C57.173 8.97557 57.0677 8.63327 56.857 8.36856C56.6556 8.09471 56.3534 7.95779 55.9504 7.95779C55.6299 7.95779 55.3689 8.04451 55.1675 8.21794C54.9751 8.38225 54.8332 8.59219 54.7416 8.84778C54.6592 9.10336 54.618 9.36351 54.618 9.62822V13.8454H52.791V9.39546C52.791 8.97557 52.6903 8.63327 52.4888 8.36856C52.2874 8.09471 51.9806 7.95779 51.5685 7.95779C51.248 7.95779 50.987 8.04451 50.7855 8.21794C50.5932 8.38225 50.4513 8.59676 50.3597 8.86147C50.2773 9.11705 50.236 9.37264 50.236 9.62822V13.8454H48.4091Z" fill="#101010"/>
<path fill-rule="evenodd" clip-rule="evenodd" d="M24.4378 8.93817H18.3284V7.71136H24.4378V8.93817Z" fill="#101010"/>
<defs>
<clipPath id="clip0_1646_23442">
<rect width="15.3609" height="17" fill="white"/>
</clipPath>
</defs>
</svg>
